<svg xmlns="http://www.w3.org/2000/svg" viewBox="0 0 300 300"><defs><style>.cls-1{fill:none;}.cls-2{fill:#fff;}.cls-3{fill:#025ce9;}.cls-4{fill:#a6ebcf;}.cls-5{fill:#ff9fa2;}.cls-6{fill:#b6e0f4;}</style></defs><title>资源 80</title><g id="图层_2" data-name="图层 2"><g id="图层_1-2" data-name="图层 1"><rect class="cls-1" width="300" height="300"/><path class="cls-2" d="M114.22,226.63a11.06,11.06,0,0,1-10.92-11.15l1.4-131.93a11.07,11.07,0,0,1,11-10.92l70.05.74A11.06,11.06,0,0,1,196.7,84.52l-1.4,131.93a11.07,11.07,0,0,1-11,10.92Z"/><path class="cls-3" d="M115.73,75.63h.09l69.93.74a8.06,8.06,0,0,1,7.95,8.12l-1.4,131.93a8.06,8.06,0,0,1-8,8h-.09l-69.93-.74a8.06,8.06,0,0,1-8-8.12l1.4-131.93a8.06,8.06,0,0,1,8-8m0-6h0a14.08,14.08,0,0,0-14,13.89l-1.4,131.93a14.08,14.08,0,0,0,13.89,14.18l69.93.74h.15a14.08,14.08,0,0,0,14-13.89l1.4-131.93a14.08,14.08,0,0,0-13.89-14.18l-69.93-.74Z"/><rect class="cls-4" x="94.04" y="103" width="112" height="86" transform="translate(2.46 294.49) rotate(-89.39)"/><path class="cls-2" d="M149.26,220a7,7,0,1,1,7.07-6.93,7,7,0,0,1-7,6.93Z"/><path class="cls-3" d="M149.33,207h.07a6,6,0,0,1-.07,12h-.06a6,6,0,0,1,.06-12m0-2h0a8,8,0,0,0-8,7.91,8,8,0,0,0,7.92,8.09h.08a8,8,0,0,0,8-7.92,8,8,0,0,0-7.91-8.08Z"/><rect class="cls-3" x="149.7" y="67.01" width="3" height="33" rx="1.5" transform="matrix(0.01, -1, 1, 0.01, 66.1, 233.82)"/><polygon class="cls-5" points="193.17 90.45 107.64 89.55 106.45 201.54 138.91 201.89 193.17 90.45"/><polygon class="cls-6" points="160.69 90.11 107.64 89.55 106.45 201.5 160.69 90.11"/></g></g></svg>