<svg xmlns="http://www.w3.org/2000/svg" viewBox="0 0 300 300"><defs><style>.cls-1{fill:none;}.cls-2{fill:#b6e0f4;}.cls-3{fill:#fff;}.cls-4{fill:#025ce9;}</style></defs><title>资源 30</title><g id="图层_2" data-name="图层 2"><g id="图层_1-2" data-name="图层 1"><rect class="cls-1" width="300" height="300"/><path class="cls-2" d="M256.21,182.4h-208V167.73A19.39,19.39,0,0,1,67.54,148.4H256.21Z"/><circle class="cls-3" cx="83.71" cy="173.9" r="17.5"/><circle class="cls-3" cx="220.71" cy="173.9" r="17.5"/><path class="cls-3" d="M105.21,141.4s27-33,60-33,55,22,62,33Z"/><path class="cls-4" d="M239.25,139.46h-7.53l-4.34-4.23-11-10.44a71.3,71.3,0,0,0-96.91-1.31l-17.71,16H67.15a27.48,27.48,0,0,0-27.48,25l-.82,8.74a13.64,13.64,0,0,0,13.58,14.92H68.17a20.82,20.82,0,0,0,30.69,0h106a20.82,20.82,0,0,0,30.69,0h13.88a11.76,11.76,0,0,0,11.75-11.75V151.21a11.76,11.76,0,0,0-11.75-11.75H239.25Zm-115.5-11.27A65,65,0,0,1,212,129.38l10.59,10.08H111.25ZM83.51,188.53A14.58,14.58,0,1,1,98.09,174,14.59,14.59,0,0,1,83.51,188.53Zm136.73,0A14.58,14.58,0,1,1,234.82,174,14.6,14.6,0,0,1,220.24,188.53Zm34.64-37.32v25.16a5.42,5.42,0,0,1-5.42,5.41h-9.84a20.92,20.92,0,1,0-38.76,0h-98a20.62,20.62,0,0,0,1.54-7.83,20.92,20.92,0,1,0-40.3,7.83H52.43a7.28,7.28,0,0,1-7.27-8l.82-8.74A21.17,21.17,0,0,1,67.15,145.8H249.46A5.42,5.42,0,0,1,254.88,151.21Z"/><rect class="cls-4" x="156.71" y="111.4" width="2" height="29"/><circle class="cls-3" cx="83.21" cy="173.9" r="6.5"/><path class="cls-4" d="M83.21,168.4a5.5,5.5,0,1,1-5.5,5.5,5.5,5.5,0,0,1,5.5-5.5m0-2a7.5,7.5,0,1,0,7.5,7.5,7.52,7.52,0,0,0-7.5-7.5Z"/><circle class="cls-3" cx="220.21" cy="173.9" r="6.5"/><path class="cls-4" d="M220.21,168.4a5.5,5.5,0,1,1-5.5,5.5,5.5,5.5,0,0,1,5.5-5.5m0-2a7.5,7.5,0,1,0,7.5,7.5,7.52,7.52,0,0,0-7.5-7.5Z"/></g></g></svg>