<svg xmlns="http://www.w3.org/2000/svg" viewBox="0 0 300 300"><defs><style>.cls-1{fill:none;}.cls-2{fill:#b6e0f4;}.cls-3{fill:#025ce9;}.cls-4{fill:#ffd8b4;}</style></defs><title>资源 64</title><g id="图层_2" data-name="图层 2"><g id="图层_1-2" data-name="图层 1"><rect class="cls-1" width="300" height="300"/><path class="cls-2" d="M110.23,168.84a5.65,5.65,0,0,1-3-.88l-.07,0-.06-.06a7.89,7.89,0,0,1-2.22-3.31l-18-46.66a4.33,4.33,0,0,1-.08-3.15l0-.13.09-.12a2.64,2.64,0,0,1,2.22-1.14h4A4,4,0,0,1,97,116.08l14.85,41.07,14.7-41a5.17,5.17,0,0,1,1.35-2l.08-.07.08,0a4.63,4.63,0,0,1,2.38-.65h4a2.68,2.68,0,0,1,2.41,1.35l.1.16,0,.18a5.23,5.23,0,0,1-.26,2.84l-18,46.7a7.29,7.29,0,0,1-2.22,3.3l-.06,0-.06,0a5.61,5.61,0,0,1-3,.88Z"/><path class="cls-3" d="M89.11,114.35h4a3,3,0,0,1,2.94,2.1l15.79,43.65,15.64-43.65a3.9,3.9,0,0,1,1.07-1.59,3.63,3.63,0,0,1,1.87-.51h4a1.73,1.73,0,0,1,1.56.87,4.37,4.37,0,0,1-.21,2.31l-18,46.69a6.43,6.43,0,0,1-1.94,2.9,4.61,4.61,0,0,1-2.51.72h-3a4.61,4.61,0,0,1-2.51-.72,6.86,6.86,0,0,1-1.94-2.9l-18-46.69a3.35,3.35,0,0,1-.07-2.45,1.64,1.64,0,0,1,1.41-.73m0-2a3.63,3.63,0,0,0-3,1.56l-.17.23-.1.27a5.41,5.41,0,0,0,.11,3.88l18,46.62a8.81,8.81,0,0,0,2.48,3.69l.12.12.15.09a6.63,6.63,0,0,0,3.58,1h3a6.66,6.66,0,0,0,3.58-1l.12-.08.11-.09a8.33,8.33,0,0,0,2.52-3.74l18-46.65a6.31,6.31,0,0,0,.32-3.4l-.07-.36-.19-.32a3.74,3.74,0,0,0-3.27-1.82h-4a5.68,5.68,0,0,0-2.88.78l-.18.11-.15.14a6,6,0,0,0-1.6,2.36L111.8,154.2,97.9,115.77v0a5,5,0,0,0-4.73-3.37h-4Z"/><path class="cls-2" d="M150.23,168.84a3.76,3.76,0,0,1-2.43-.88l-.09-.08-.07-.09a4.2,4.2,0,0,1-.85-2.55V117a4.15,4.15,0,0,1,.85-2.54l.07-.1.09-.08a3.76,3.76,0,0,1,2.43-.88h3.16a3.53,3.53,0,0,1,2.57,1.09l.07.08a3.75,3.75,0,0,1,.87,2.43v48.29a3.75,3.75,0,0,1-.87,2.43l-.07.08a3.53,3.53,0,0,1-2.57,1.09Z"/><path class="cls-3" d="M153.39,114.35a2.56,2.56,0,0,1,1.87.8,2.78,2.78,0,0,1,.64,1.8v48.29a2.78,2.78,0,0,1-.64,1.8,2.56,2.56,0,0,1-1.87.8h-3.16a2.76,2.76,0,0,1-1.79-.65,3.2,3.2,0,0,1-.65-1.95V117a3.2,3.2,0,0,1,.65-2,2.76,2.76,0,0,1,1.79-.65h3.16m0-2h-3.16a4.74,4.74,0,0,0-3.06,1.11l-.19.15-.14.2a5.1,5.1,0,0,0-1.05,3.14v48.29a5.08,5.08,0,0,0,1.05,3.14l.14.2.19.15a4.74,4.74,0,0,0,3.06,1.11h3.16a4.55,4.55,0,0,0,3.28-1.38l.07-.08.07-.08a4.83,4.83,0,0,0,1.09-3.06V117a4.83,4.83,0,0,0-1.09-3.06l-.07-.08-.07-.07a4.52,4.52,0,0,0-3.28-1.39Z"/><path class="cls-4" d="M206.45,168.84a4.73,4.73,0,0,1-2.87-.92,9.71,9.71,0,0,1-1.51-1.67c-.63-.87-1.22-1.77-1.77-2.66l-22.25-37.3v39a3.75,3.75,0,0,1-.87,2.43l-.07.08a3.51,3.51,0,0,1-2.57,1.09h-3.16A3.76,3.76,0,0,1,169,168l-.09-.08-.07-.09a4.2,4.2,0,0,1-.85-2.55V117a4.08,4.08,0,0,1,1.05-2.54,3.31,3.31,0,0,1,2.47-1.06h3.94a4.6,4.6,0,0,1,3.15,1.38,17,17,0,0,1,2.61,3.63l22.15,36.71V117a3.43,3.43,0,0,1,1-2.65,3.79,3.79,0,0,1,2.51-1H210a3.55,3.55,0,0,1,2.58,1.09l.06.08a3.75,3.75,0,0,1,.87,2.43v48.29a3.47,3.47,0,0,1-.9,2.62l-.06.07-.08.06a4.06,4.06,0,0,1-2.47.85h-3.53Z"/><path class="cls-3" d="M210,114.35a2.56,2.56,0,0,1,1.87.8,2.78,2.78,0,0,1,.64,1.8v48.29a2.53,2.53,0,0,1-.64,1.95,3.08,3.08,0,0,1-1.87.65h-3.53a3.78,3.78,0,0,1-2.28-.72,9.36,9.36,0,0,1-1.29-1.45c-.62-.87-1.2-1.73-1.72-2.6l-24.11-40.41v42.58a2.78,2.78,0,0,1-.64,1.8,2.56,2.56,0,0,1-1.87.8h-3.16a2.76,2.76,0,0,1-1.79-.65,3.2,3.2,0,0,1-.65-1.95V117a3,3,0,0,1,.79-1.87,2.34,2.34,0,0,1,1.73-.73h3.94a3.56,3.56,0,0,1,2.44,1.09,15.55,15.55,0,0,1,2.44,3.39l24,39.83V117a2.48,2.48,0,0,1,.72-2,2.79,2.79,0,0,1,1.8-.65H210m0-2h-3.15a4.75,4.75,0,0,0-3.07,1.11l-.08.06-.07.07a4.48,4.48,0,0,0-1.3,3.42v34.46L182,117.84a17.68,17.68,0,0,0-2.73-3.78v0h0a5.68,5.68,0,0,0-3.76-1.68h-4a4.36,4.36,0,0,0-3.15,1.32l0,0,0,0a5,5,0,0,0-1.3,3.1v48.41a5.14,5.14,0,0,0,1.05,3.14l.14.2.19.15a4.74,4.74,0,0,0,3.06,1.11h3.16a4.55,4.55,0,0,0,3.28-1.38l.07-.08.07-.08a4.83,4.83,0,0,0,1.09-3.06V129.92l20.39,34.17c.56.93,1.17,1.84,1.82,2.75a11.42,11.42,0,0,0,1.57,1.76l.07.06.08.06a5.69,5.69,0,0,0,3.47,1.12H210a5,5,0,0,0,3.07-1.06l.16-.11.12-.14a4.51,4.51,0,0,0,1.16-3.35V117a4.78,4.78,0,0,0-1.09-3.06l-.06-.08-.07-.07a4.55,4.55,0,0,0-3.29-1.39Z"/></g></g></svg>