<svg xmlns="http://www.w3.org/2000/svg" xmlns:xlink="http://www.w3.org/1999/xlink" viewBox="0 0 300 300"><defs><style>.cls-1{fill:none;}.cls-2{fill:#fff;}.cls-3{fill:#005ce9;}.cls-4{fill:#c5d2df;}.cls-5{clip-path:url(#clip-path);}.cls-6{fill:#ffd8b4;}.cls-7{fill:#b6e0f4;}</style><clipPath id="clip-path"><path class="cls-1" d="M185.93,95.5H114.07a6.09,6.09,0,0,0-6.07,6.07V139h19V251.06a9.94,9.94,0,0,0,9.94,9.94h26.12a9.94,9.94,0,0,0,9.94-9.94V139h19V101.57A6.09,6.09,0,0,0,185.93,95.5Z"/></clipPath></defs><title>资源 42</title><g id="图层_2" data-name="图层 2"><g id="图层_1-2" data-name="图层 1"><rect class="cls-1" width="300" height="300"/><rect class="cls-2" x="105" y="92.5" width="90" height="86" rx="9"/><path class="cls-3" d="M186,95.5a6,6,0,0,1,6,6v68a6,6,0,0,1-6,6H114a6,6,0,0,1-6-6v-68a6,6,0,0,1,6-6h72m0-6H114a12,12,0,0,0-12,12v68a12,12,0,0,0,12,12h72a12,12,0,0,0,12-12v-68a12,12,0,0,0-12-12Z"/><path class="cls-2" d="M136.94,264A13,13,0,0,1,124,251.06V142H105V101.57a9.08,9.08,0,0,1,9.07-9.07h71.86a9.08,9.08,0,0,1,9.07,9.07V142H176V251.06A13,13,0,0,1,163.06,264Z"/><path class="cls-3" d="M185.93,95.5a6.09,6.09,0,0,1,6.07,6.07V139H173V251.06a9.94,9.94,0,0,1-9.94,9.94H136.94a9.94,9.94,0,0,1-9.94-9.94V139H108V101.57a6.09,6.09,0,0,1,6.07-6.07h71.86m0-6H114.07A12.08,12.08,0,0,0,102,101.57V145h19V251.06A16,16,0,0,0,136.94,267h26.12A16,16,0,0,0,179,251.06V145h19V101.57A12.08,12.08,0,0,0,185.93,89.5Z"/><path class="cls-4" d="M130,163.5v94.67a9.9,9.9,0,0,0,6.94,2.83h26.12a9.94,9.94,0,0,0,9.94-9.94V163.5Z"/><g class="cls-5"><path class="cls-6" d="M189.2,163H116.8a5.82,5.82,0,0,1-5.8-5.8V103.8a5.82,5.82,0,0,1,5.8-5.8H195v59.2A5.82,5.82,0,0,1,189.2,163Z"/><path class="cls-7" d="M116.8,98a5.82,5.82,0,0,0-5.8,5.8v53.4a5.82,5.82,0,0,0,5.8,5.8h18.13L167,98Z"/></g><rect class="cls-3" x="125" y="110.5" width="2" height="33"/><rect class="cls-3" x="149" y="188" width="2" height="74.5"/><rect class="cls-3" x="173" y="110.5" width="2" height="33"/><circle class="cls-2" cx="150" cy="56.5" r="22"/><path class="cls-3" d="M150,37.5a19,19,0,1,1-19,19,19,19,0,0,1,19-19m0-6a25,25,0,1,0,25,25,25,25,0,0,0-25-25Z"/><rect class="cls-3" x="127" y="162.5" width="46" height="2"/></g></g></svg>