<svg xmlns="http://www.w3.org/2000/svg" viewBox="0 0 300 300"><defs><style>.cls-1{fill:none;}.cls-2{fill:#fff;}.cls-3{fill:#025ce9;}.cls-4{fill:#b6e0f4;}</style></defs><title>资源 26</title><g id="图层_2" data-name="图层 2"><g id="图层_1-2" data-name="图层 1"><rect class="cls-1" width="300" height="300"/><rect class="cls-2" x="104" y="73" width="92" height="154" rx="11.03"/><path class="cls-3" d="M185,76a8,8,0,0,1,8,8V216a8,8,0,0,1-8,8H115a8,8,0,0,1-8-8V84a8,8,0,0,1,8-8H185m0-6H115a14,14,0,0,0-14,14V216a14,14,0,0,0,14,14H185a14,14,0,0,0,14-14V84a14,14,0,0,0-14-14Z"/><rect class="cls-4" x="107" y="90" width="86" height="112"/><circle class="cls-2" cx="150" cy="213" r="7"/><path class="cls-3" d="M150,207a6,6,0,1,1-6,6,6,6,0,0,1,6-6m0-2a8,8,0,1,0,8,8,8,8,0,0,0-8-8Z"/><rect class="cls-3" x="134" y="82" width="33" height="3" rx="1.5"/></g></g></svg>