<svg xmlns="http://www.w3.org/2000/svg" xmlns:xlink="http://www.w3.org/1999/xlink" viewBox="0 0 300 300"><defs><style>.cls-1{fill:none;}.cls-2{fill:#fff;}.cls-3{fill:#005ce9;}.cls-4{fill:#c5d2df;}.cls-5{clip-path:url(#clip-path);}.cls-6{fill:#ffd8b4;}</style><clipPath id="clip-path"><path class="cls-1" d="M181.6,95.62H109.73a6.08,6.08,0,0,0-6.06,6.07v37.43h19V251.18a9.94,9.94,0,0,0,9.94,9.94h26.12a9.94,9.94,0,0,0,9.94-9.94V139.12h19V101.69A6.09,6.09,0,0,0,181.6,95.62Z"/></clipPath></defs><title>资源 24</title><g id="图层_2" data-name="图层 2"><g id="图层_1-2" data-name="图层 1"><rect class="cls-1" width="300" height="300"/><rect class="cls-2" x="100.67" y="92.63" width="90" height="86" rx="9"/><path class="cls-3" d="M181.67,95.62a6,6,0,0,1,6,6v68a6,6,0,0,1-6,6h-72a6,6,0,0,1-6-6v-68a6,6,0,0,1,6-6h72m0-6h-72a12,12,0,0,0-12,12v68a12,12,0,0,0,12,12h72a12,12,0,0,0,12-12v-68a12,12,0,0,0-12-12Z"/><path class="cls-2" d="M132.61,264.12a13,13,0,0,1-12.94-12.94V142.12h-19V101.69a9.07,9.07,0,0,1,9.06-9.07H181.6a9.08,9.08,0,0,1,9.07,9.07v40.43h-19V251.18a13,13,0,0,1-12.94,12.94Z"/><path class="cls-3" d="M181.6,95.62a6.09,6.09,0,0,1,6.07,6.07v37.43h-19V251.18a9.94,9.94,0,0,1-9.94,9.94H132.61a9.94,9.94,0,0,1-9.94-9.94V139.12h-19V101.69a6.08,6.08,0,0,1,6.06-6.07H181.6m0-6H109.73a12.08,12.08,0,0,0-12.06,12.07v43.43h19V251.18a16,16,0,0,0,15.94,15.94h26.12a16,16,0,0,0,15.94-15.94V145.12h19V101.69A12.09,12.09,0,0,0,181.6,89.62Z"/><path class="cls-4" d="M125.67,163.62v94.67a9.9,9.9,0,0,0,6.94,2.83h26.12a9.94,9.94,0,0,0,9.94-9.94V163.62Z"/><g class="cls-5"><path class="cls-6" d="M184.87,163.12H112.46a5.8,5.8,0,0,1-5.79-5.79V103.92a5.81,5.81,0,0,1,5.79-5.8h78.21v59.21A5.81,5.81,0,0,1,184.87,163.12Z"/></g><rect class="cls-3" x="120.67" y="110.63" width="2" height="33"/><rect class="cls-3" x="144.67" y="188.12" width="2" height="74.5"/><rect class="cls-3" x="168.67" y="110.63" width="2" height="33"/><path class="cls-2" d="M145.67,78.62a22,22,0,1,1,22-22A22,22,0,0,1,145.67,78.62Z"/><path class="cls-3" d="M145.67,37.62a19,19,0,1,1-19,19,19,19,0,0,1,19-19m0-6a25,25,0,1,0,25,25,25,25,0,0,0-25-25Z"/><rect class="cls-3" x="122.67" y="162.63" width="46" height="2"/></g></g></svg>