<svg xmlns="http://www.w3.org/2000/svg" viewBox="0 0 300 300"><defs><style>.cls-1{fill:none;}.cls-2,.cls-5{fill:#fff;}.cls-3{fill:#025ce9;}.cls-4{fill:#ffd8b4;}.cls-5{stroke:#025ce9;stroke-miterlimit:10;stroke-width:2px;}</style></defs><title>资源 34</title><g id="图层_2" data-name="图层 2"><g id="图层_1-2" data-name="图层 1"><rect class="cls-1" width="300" height="300"/><rect class="cls-2" x="79.95" y="101.5" width="140.11" height="97" rx="14.97"/><path class="cls-3" d="M205.09,104.5a12,12,0,0,1,12,12v67.06a12,12,0,0,1-12,12H94.91a12,12,0,0,1-12-12V116.47a12,12,0,0,1,12-12H205.09m0-6H94.91a18,18,0,0,0-18,18v67.06a18,18,0,0,0,18,18H205.09a18,18,0,0,0,18-18V116.47a18,18,0,0,0-18-18Z"/><path class="cls-4" d="M213.35,107.71H95.7c-5.52,0-10,5.34-10,11.86v71.56a10.19,10.19,0,0,0,8.12,4.37H206.21c6,0,10.84-5.76,10.84-12.81V117.31A13.85,13.85,0,0,0,213.35,107.71Z"/><path class="cls-5" d="M132.49,150.75c-3.41-2-8.24-3-8.24-5.21,0-3.1,4.54-5.9,4.54-13.41,0-2.61-1.32-12.42-9.95-12.42-8.81,0-10,9.81-10,12.42,0,7.51,4.55,10.31,4.55,13.41,0,2.2-4.74,3.21-8.24,5.21-3.13,1.8-6.26,3.1-6.26,6.61,0,2.6,2.39,2.1,4.76,2.1h30.71c2.27,0,4.53.4,4.53-2.1-.19-3.51-3.32-4.81-6.45-6.61"/><rect class="cls-3" x="147.04" y="123.18" width="56.52" height="5.75" rx="2.5"/><rect class="cls-3" x="147.04" y="149.04" width="56.52" height="5.75" rx="2.5"/><rect class="cls-3" x="98.19" y="174.91" width="105.37" height="5.75" rx="2.5"/></g></g></svg>